# xmcd
#
# Track frame offsets:
#	150
#	19269
#	36639
#	55328
#	71080
#	88044
#	102494
#	118484
#	137678
#	154217
#	169720
#	184385
#
# Disc length: 2717 seconds
#
# Revision: 1
# Processed by: cddbd v1.5.1PL2 Copyright (c) Steve Scherf et al.
# Submitted via: audiograbber 1.83.01
#
DISCID=b70a9b0c
DTITLE=Heidi Brühl - Think of me
DYEAR=1900
DGENRE=
TTITLE0=Mamacita (H Brühl D Santos)
TTITLE1=Think If Me ( H Brühl D Santos)
TTITLE2=Youre The One In My World
TTITLE3=Call My Line
TTITLE4=Disconnected  Dreams
TTITLE5=So Say You Do
TTITLE6=You Are A Part Of My Heart
TTITLE7=A Simple Love Song
TTITLE8=No Ties No Tears
TTITLE9=Out There
TTITLE10=Youre Going  To Lose That Boy
TTITLE11=Please Remember
EXTD=Band
EXTT0=
EXTT1=
EXTT2=
EXTT3=
EXTT4=
EXTT5=
EXTT6=
EXTT7=
EXTT8=
EXTT9=
EXTT10=
EXTT11=
PLAYORDER=
